<?xml version="1.0" encoding="UTF-8" standalone="no"?>
<svg xmlns="http://www.w3.org/2000/svg" width="256" height="256" viewBox="0 0 256 256">
  <path d="M126.916.072C62.084.072 66.132 28.187 66.132 28.187l.072 29.127h61.868v8.745H41.63s-41.486-4.705-41.486 60.711c0 65.417 36.21 63.097 36.21 63.097h21.61v-30.356s-1.165-36.21 35.632-36.21h61.362s34.475.557 34.475-33.319V33.97S194.67.072 126.916.072zM92.802 19.66a11.13 11.13 0 0 1 11.13 11.13 11.13 11.13 0 0 1-11.13 11.13 11.13 11.13 0 0 1-11.13-11.13 11.13 11.13 0 0 1 11.13-11.13z" fill="#ffffff"/>
  <path d="M128.757 254.126c64.832 0 60.784-28.115 60.784-28.115l-.072-29.127h-61.868v-8.745h86.441s41.486 4.705 41.486-60.712c0-65.416-36.21-63.096-36.21-63.096h-21.61v30.355s1.165 36.21-35.632 36.21h-61.362s-34.475-.557-34.475 33.32v56.013s-5.235 33.897 62.518 33.897zm34.114-19.586a11.13 11.13 0 0 1-11.13-11.13 11.13 11.13 0 0 1 11.13-11.13 11.13 11.13 0 0 1 11.13 11.13 11.13 11.13 0 0 1-11.13 11.13z" fill="#ffffff"/>
</svg>
